<?xml version="1.0" encoding="utf-8"?>
<!-- Generator: Adobe Illustrator 20.1.0, SVG Export Plug-In . SVG Version: 6.00 Build 0)  -->
<svg version="1.1" xmlns="http://www.w3.org/2000/svg" xmlns:xlink="http://www.w3.org/1999/xlink" x="0px" y="0px"
	 viewBox="0 0 50 50" style="enable-background:new 0 0 50 50;" xml:space="preserve">
<style type="text/css">
	.st0{display:none;}
	.st1{display:inline;fill:#FFFFFF;}
	.st2{display:inline;fill:#ABABAB;}
	.st3{fill:#3C5A99;}
</style>
<g id="XMLID_3_" class="st0">
	<path class="st1" d="M47.2,0H2.8C1.2,0,0,1.2,0,2.8v44.5C0,48.8,1.2,50,2.8,50h23.9V30.6h-6.5v-7.5h6.5v-5.6c0-6.5,3.9-10,9.7-10
		c2.8,0,5.1,0.2,5.8,0.3v6.7l-4,0c-3.1,0-3.7,1.5-3.7,3.7v4.8H42l-1,7.5h-6.5V50h12.7c1.5,0,2.8-1.2,2.8-2.8V2.8
		C50,1.2,48.8,0,47.2,0z"/>
</g>
<g id="XMLID_1_" class="st0">
	<path class="st2" d="M47.2,0H2.8C1.2,0,0,1.2,0,2.8v44.5C0,48.8,1.2,50,2.8,50h23.9V30.6h-6.5v-7.5h6.5v-5.6c0-6.5,3.9-10,9.7-10
		c2.8,0,5.1,0.2,5.8,0.3v6.7l-4,0c-3.1,0-3.7,1.5-3.7,3.7v4.8H42l-1,7.5h-6.5V50h12.7c1.5,0,2.8-1.2,2.8-2.8V2.8
		C50,1.2,48.8,0,47.2,0z"/>
</g>
<g id="XMLID_2_">
	<path class="st3" d="M47.2,0H2.8C1.2,0,0,1.2,0,2.8v44.5C0,48.8,1.2,50,2.8,50h23.9V30.6h-6.5v-7.5h6.5v-5.6c0-6.5,3.9-10,9.7-10
		c2.8,0,5.1,0.2,5.8,0.3v6.7l-4,0c-3.1,0-3.7,1.5-3.7,3.7v4.8H42l-1,7.5h-6.5V50h12.7c1.5,0,2.8-1.2,2.8-2.8V2.8
		C50,1.2,48.8,0,47.2,0z"/>
</g>
</svg>
