<svg xmlns="http://www.w3.org/2000/svg" width="50" height="50" viewBox="0 0 50 50">
  <path d="M25,4.5 C31.7,4.5 32.5,4.5 35.1,4.6 C37.5,4.7 38.9,5.1 39.7,5.5 C40.9,6 41.7,6.5 42.6,7.4 C43.5,8.3 44,9.1 44.5,10.3 C44.8,11.2 45.2,12.5 45.4,14.9 C45.5,17.5 45.5,18.3 45.5,25 C45.5,31.7 45.5,32.5 45.4,35.1 C45.3,37.5 44.9,38.9 44.5,39.7 C44,40.9 43.5,41.7 42.6,42.6 C41.7,43.5 40.9,44 39.7,44.5 C38.8,44.8 37.5,45.2 35.1,45.4 C32.5,45.5 31.7,45.5 25,45.5 C18.3,45.5 17.5,45.5 14.9,45.4 C12.5,45.3 11.1,44.9 10.3,44.5 C9.1,44 8.3,43.5 7.4,42.6 C6.5,41.7 6,40.9 5.5,39.7 C5.2,38.8 4.8,37.5 4.6,35.1 C4.5,32.5 4.5,31.7 4.5,25 C4.5,18.3 4.5,17.5 4.6,14.9 C4.7,12.5 5.1,11.1 5.5,10.3 C6,9.1 6.5,8.3 7.4,7.4 C8.3,6.5 9.1,6 10.3,5.5 C11.2,5.2 12.5,4.8 14.9,4.6 C17.5,4.5 18.3,4.5 25,4.5 M25,0 C18.2,0 17.4,0 14.7,0.2 C12,0.3 10.2,0.7 8.6,1.3 C7,2 5.6,2.8 4.2,4.2 C2.8,5.6 2,7 1.3,8.6 C0.7,10.2 0.3,12 0.1,14.7 C0,17.4 0,18.2 0,25 C0,31.8 0,32.6 0.2,35.3 C0.3,38 0.7,39.8 1.4,41.4 C2,43 2.9,44.4 4.3,45.8 C5.6,47.2 7,48 8.6,48.7 C10.2,49.3 12,49.7 14.7,49.9 C17.4,50 18.2,50 25,50 C31.8,50 32.6,50 35.3,49.8 C38,49.7 39.8,49.3 41.4,48.6 C43,48 44.4,47.1 45.8,45.7 C47.2,44.3 48,42.9 48.7,41.3 C49.3,39.7 49.7,37.9 49.9,35.2 C50,32.6 50,31.8 50,25 C50,18.2 50,17.4 49.8,14.7 C49.7,12 49.3,10.2 48.6,8.6 C48,7 47.1,5.6 45.7,4.2 C44.4,2.8 43,2 41.4,1.3 C39.8,0.7 38,0.3 35.3,0.1 C32.6,0 31.8,0 25,0 L25,0 L25,0 Z"/>
  <path d="M25 12.2C17.9 12.2 12.2 17.9 12.2 25 12.2 32.1 17.9 37.8 25 37.8 32.1 37.8 37.8 32.1 37.8 25 37.8 17.9 32.1 12.2 25 12.2L25 12.2zM25 33.3C20.4 33.3 16.7 29.6 16.7 25 16.7 20.4 20.4 16.7 25 16.7 29.6 16.7 33.3 20.4 33.3 25 33.3 29.6 29.6 33.3 25 33.3L25 33.3zM41.3 11.7C41.3 13.4 40 14.7 38.3 14.7 36.6 14.7 35.3 13.4 35.3 11.7 35.3 10 36.6 8.7 38.3 8.7 40 8.7 41.3 10 41.3 11.7L41.3 11.7z"/>
</svg>
