<svg xmlns="http://www.w3.org/2000/svg" width="50" height="29" viewBox="0 0 50 29">
  <defs>
    <linearGradient id="soundcloud-hover-a" x1="49.361%" x2="49.361%" y1="-27.647%" y2="100.08%">
      <stop offset="0%" stop-color="#F6871F"/>
      <stop offset="20.51%" stop-color="#F58120"/>
      <stop offset="53.78%" stop-color="#F37021"/>
      <stop offset="95.44%" stop-color="#F04E23"/>
      <stop offset="100%" stop-color="#F04923"/>
    </linearGradient>
    <linearGradient id="soundcloud-hover-b" x1="49.85%" x2="49.85%" y1="-25.434%" y2="100.079%">
      <stop offset="0%" stop-color="#F6871F"/>
      <stop offset="20.51%" stop-color="#F58120"/>
      <stop offset="53.78%" stop-color="#F37021"/>
      <stop offset="95.44%" stop-color="#F04E23"/>
      <stop offset="100%" stop-color="#F04923"/>
    </linearGradient>
    <linearGradient id="soundcloud-hover-c" x1="44.906%" x2="44.906%" y1="-26.012%" y2="99.501%">
      <stop offset="0%" stop-color="#F6871F"/>
      <stop offset="20.51%" stop-color="#F58120"/>
      <stop offset="53.78%" stop-color="#F37021"/>
      <stop offset="95.44%" stop-color="#F04E23"/>
      <stop offset="100%" stop-color="#F04923"/>
    </linearGradient>
    <linearGradient id="soundcloud-hover-d" x1="48.376%" x2="48.376%" y1="-23.295%" y2="100.078%">
      <stop offset="0%" stop-color="#F6871F"/>
      <stop offset="20.51%" stop-color="#F58120"/>
      <stop offset="53.78%" stop-color="#F37021"/>
      <stop offset="95.44%" stop-color="#F04E23"/>
      <stop offset="100%" stop-color="#F04923"/>
    </linearGradient>
    <linearGradient id="soundcloud-hover-e" x1="49.325%" x2="49.325%" y1="-90.266%" y2="101.891%">
      <stop offset="0%" stop-color="#F6871F"/>
      <stop offset="20.51%" stop-color="#F58120"/>
      <stop offset="53.78%" stop-color="#F37021"/>
      <stop offset="95.44%" stop-color="#F04E23"/>
      <stop offset="100%" stop-color="#F04923"/>
    </linearGradient>
    <linearGradient id="soundcloud-hover-f" x1="49.761%" x2="49.761%" y1="-14.211%" y2="100.072%">
      <stop offset="0%" stop-color="#F6871F"/>
      <stop offset="20.51%" stop-color="#F58120"/>
      <stop offset="53.78%" stop-color="#F37021"/>
      <stop offset="95.44%" stop-color="#F04E23"/>
      <stop offset="100%" stop-color="#F04923"/>
    </linearGradient>
    <linearGradient id="soundcloud-hover-g" x1="48.962%" x2="48.962%" y1="-96.364%" y2="101.034%">
      <stop offset="0%" stop-color="#F6871F"/>
      <stop offset="20.51%" stop-color="#F58120"/>
      <stop offset="53.78%" stop-color="#F37021"/>
      <stop offset="95.44%" stop-color="#F04E23"/>
      <stop offset="100%" stop-color="#F04923"/>
    </linearGradient>
    <linearGradient id="soundcloud-hover-h" x1="49.625%" x2="49.625%" y1="-50.694%" y2="100.094%">
      <stop offset="0%" stop-color="#F6871F"/>
      <stop offset="20.51%" stop-color="#F58120"/>
      <stop offset="53.78%" stop-color="#F37021"/>
      <stop offset="95.44%" stop-color="#F04E23"/>
      <stop offset="100%" stop-color="#F04923"/>
    </linearGradient>
    <linearGradient id="soundcloud-hover-i" x1="49.35%" x2="49.35%" y1="-33.129%" y2="100.084%">
      <stop offset="0%" stop-color="#F6871F"/>
      <stop offset="20.51%" stop-color="#F58120"/>
      <stop offset="53.78%" stop-color="#F37021"/>
      <stop offset="95.44%" stop-color="#F04E23"/>
      <stop offset="100%" stop-color="#F04923"/>
    </linearGradient>
    <linearGradient id="soundcloud-hover-j" x1="52.274%" x2="52.274%" y1="-6.897%" y2="100.067%">
      <stop offset="0%" stop-color="#F6871F"/>
      <stop offset="20.51%" stop-color="#F58120"/>
      <stop offset="53.78%" stop-color="#F37021"/>
      <stop offset="95.44%" stop-color="#F04E23"/>
      <stop offset="100%" stop-color="#F04923"/>
    </linearGradient>
    <linearGradient id="soundcloud-hover-k" x1="49.967%" x2="49.967%" y1="-220.339%" y2="147.69%">
      <stop offset="0%" stop-color="#F6871F"/>
      <stop offset="20.51%" stop-color="#F58120"/>
      <stop offset="53.78%" stop-color="#F37021"/>
      <stop offset="95.44%" stop-color="#F04E23"/>
      <stop offset="100%" stop-color="#F04923"/>
    </linearGradient>
    <linearGradient id="soundcloud-hover-l" x1="49.893%" x2="49.893%" y1="-121.506%" y2="111.974%">
      <stop offset="0%" stop-color="#F6871F"/>
      <stop offset="20.51%" stop-color="#F58120"/>
      <stop offset="53.78%" stop-color="#F37021"/>
      <stop offset="95.44%" stop-color="#F04E23"/>
      <stop offset="100%" stop-color="#F04923"/>
    </linearGradient>
    <linearGradient id="soundcloud-hover-m" x1="50.663%" x2="50.663%" y1="-97.222%" y2="103.83%">
      <stop offset="0%" stop-color="#F6871F"/>
      <stop offset="20.51%" stop-color="#F58120"/>
      <stop offset="53.78%" stop-color="#F37021"/>
      <stop offset="95.44%" stop-color="#F04E23"/>
      <stop offset="100%" stop-color="#F04923"/>
    </linearGradient>
    <linearGradient id="soundcloud-hover-n" x1="49.871%" x2="49.871%" y1="0%" y2="99.924%">
      <stop offset="0%" stop-color="#F7941D"/>
      <stop offset="0%" stop-color="#F78E1E"/>
      <stop offset="0%" stop-color="#F6871F"/>
      <stop offset="20.58%" stop-color="#F58120"/>
      <stop offset="54.13%" stop-color="#F36F21"/>
      <stop offset="96.27%" stop-color="#F04D23"/>
      <stop offset="100%" stop-color="#F04923"/>
    </linearGradient>
  </defs>
  <g fill="none">
    <path fill="url(#soundcloud-hover-a)" d="M21.6,16 L21.3,5.3 C21.3,5 21,4.7 20.7,4.7 C20.4,4.7 20.1,5 20.1,5.3 L19.8,16 L20.1,21.1 C20.1,21.4 20.4,21.7 20.7,21.7 C21,21.7 21.3,21.4 21.3,21.1 L21.3,21.1 L21.6,16 Z"/>
    <path fill="url(#soundcloud-hover-b)" d="M19.5,16 L19.1,4.9 C19.1,4.6 18.9,4.4 18.6,4.4 C18.3,4.4 18.1,4.6 18.1,4.9 L17.7,16 L18,21.2 C18,21.5 18.2,21.7 18.5,21.7 C18.8,21.7 19,21.5 19,21.2 L19,21.2 L19.5,16 Z"/>
    <path fill="url(#soundcloud-hover-c)" d="M14.9,5 C14.9,4.7 14.7,4.5 14.4,4.5 C14.2,4.5 14,4.7 14,5 L13.7,16 L14,21.3 C14,21.6 14.2,21.8 14.5,21.8 C14.7,21.8 15,21.6 15,21.3 L15.4,16.1 L14.9,5 Z"/>
    <path fill="url(#soundcloud-hover-d)" d="M17,4.6 C17,4.3 16.8,4.1 16.5,4.1 C16.2,4.1 16,4.3 16,4.6 L15.7,16 L16,21.2 C16,21.5 16.2,21.7 16.5,21.7 C16.8,21.7 17,21.5 17,21.2 L17.4,16 L17,4.6 Z"/>
    <path fill="url(#soundcloud-hover-e)" d="M6.4,21.5 C6.6,21.5 6.7,21.4 6.7,21.2 L7.2,16 L6.7,10.5 C6.7,10.3 6.6,10.2 6.4,10.2 C6.2,10.2 6.1,10.3 6.1,10.5 L5.6,16 L6,21.3 C6.1,21.4 6.2,21.5 6.4,21.5 Z"/>
    <path fill="url(#soundcloud-hover-f)" d="M23.7,16 L23.4,3.3 C23.4,3.1 23.3,2.9 23.1,2.8 C23,2.7 22.9,2.7 22.7,2.7 C22.6,2.7 22.5,2.7 22.4,2.8 C22.2,2.9 22.1,3.1 22.1,3.3 L22.1,3.4 L21.9,16 C21.9,16 22.1,21.1 22.1,21.1 C22.1,21.1 22.1,21.1 22.1,21.1 C22.1,21.2 22.2,21.4 22.2,21.5 C22.3,21.6 22.5,21.7 22.7,21.7 C22.9,21.7 23,21.6 23.1,21.5 C23.2,21.4 23.3,21.2 23.3,21.1 L23.3,20.6 L23.7,16 Z"/>
    <path fill="url(#soundcloud-hover-g)" d="M8.7,10.9 C8.7,10.7 8.5,10.6 8.4,10.6 C8.2,10.6 8.1,10.7 8.1,10.9 L7.6,16 L8,21.3 C8,21.5 8.2,21.6 8.3,21.6 C8.5,21.6 8.6,21.5 8.6,21.3 L9.2,16 L8.7,10.9 Z"/>
    <path fill="url(#soundcloud-hover-h)" d="M10.4,7.3 C10.2,7.3 10,7.5 10,7.7 L9.6,16 L10,21.3 C10,21.5 10.2,21.7 10.4,21.7 C10.6,21.7 10.8,21.5 10.8,21.3 L10.8,21.3 L11.2,16 L10.8,7.7 C10.7,7.5 10.6,7.3 10.4,7.3 Z"/>
    <path fill="url(#soundcloud-hover-i)" d="M12.8,21.3 L12.8,21.3 L13.2,16 L12.8,5.8 C12.8,5.6 12.6,5.4 12.4,5.4 C12.2,5.4 12,5.6 12,5.8 L11.6,16 L12,21.3 C12,21.5 12.2,21.7 12.4,21.7 C12.6,21.7 12.8,21.5 12.8,21.3 Z"/>
    <path fill="url(#soundcloud-hover-j)" d="M25.2,1.5 C25.1,1.4 25,1.4 24.9,1.4 C24.7,1.4 24.6,1.5 24.5,1.6 C24.3,1.7 24.3,1.9 24.2,2.1 L24.2,2.2 L23.9,16 L24,18.5 L24.1,21 C24.1,21.4 24.4,21.7 24.8,21.7 C25.2,21.7 25.5,21.4 25.5,21 L25.5,21 L25.5,21 L25.8,16 L25.8,16 L25.6,2.1 C25.6,1.9 25.4,1.7 25.2,1.5 Z"/>
    <path fill="url(#soundcloud-hover-k)" d="M0.6,18.9 C0.7,18.9 0.8,18.8 0.8,18.7 L1.2,16 L0.8,13.2 C0.8,13.1 0.7,13 0.6,13 C0.5,13 0.4,13.1 0.4,13.2 L0,16 L0.4,18.7 C0.4,18.8 0.5,18.9 0.6,18.9 Z"/>
    <path fill="url(#soundcloud-hover-l)" d="M2.4,20.6 C2.5,20.6 2.6,20.5 2.6,20.4 L3.2,16 L2.6,11.5 C2.6,11.4 2.5,11.3 2.4,11.3 C2.3,11.3 2.2,11.4 2.2,11.5 C2.2,11.5 1.7,16 1.7,16 L2.2,20.4 C2.2,20.5 2.3,20.6 2.4,20.6 Z"/>
    <path fill="url(#soundcloud-hover-m)" d="M4.4,21.3 C4.5,21.3 4.6,21.2 4.7,21.1 L5.2,16 L4.7,10.7 C4.7,10.6 4.6,10.5 4.4,10.5 C4.3,10.5 4.2,10.6 4.1,10.7 C4.1,10.7 3.6,16 3.6,16 L4.1,21.1 C4.1,21.2 4.2,21.3 4.4,21.3 Z"/>
    <path fill="url(#soundcloud-hover-n)" d="M43.9,9.4 C43.1,9.4 42.3,9.6 41.5,9.9 C41,4.3 36.3,0 30.7,0 C29.3,0 28,0.3 26.8,0.7 C26.3,0.9 26.2,1.1 26.2,1.4 L26.2,21 C26.2,21.4 26.5,21.7 26.9,21.7 C26.9,21.7 43.9,21.7 43.9,21.7 C47.3,21.7 50,19 50,15.6 C50,12.2 47.2,9.4 43.9,9.4 Z"/>
    <path fill="#F04923" d="M4.9,25.4 C4.2,25.2 4,25.1 4,24.8 C4,24.6 4.2,24.4 4.6,24.4 C5,24.4 5.3,24.6 5.6,24.9 L6.3,24.3 C5.9,23.9 5.4,23.6 4.6,23.6 C3.7,23.6 3,24.1 3,24.9 C3,25.8 3.6,26.1 4.4,26.3 C5.3,26.5 5.4,26.6 5.4,26.9 C5.4,27.2 5.1,27.4 4.6,27.4 C4.2,27.4 3.8,27.3 3.4,26.9 L2.7,27.5 C3,28 3.7,28.3 4.5,28.3 C5.7,28.3 6.3,27.7 6.3,26.9 C6.4,25.8 5.6,25.6 4.9,25.4 Z M9.1,23.5 C7.9,23.5 7.1,24.5 7.1,25.8 C7.1,27.2 7.8,28.1 9.1,28.1 C10.3,28.1 11.1,27.1 11.1,25.8 C11.1,24.5 10.3,23.5 9.1,23.5 Z M9.1,27.3 C8.4,27.3 8.1,26.7 8.1,25.9 C8.1,25.1 8.4,24.5 9.1,24.5 C9.8,24.5 10.1,25.1 10.1,25.9 C10.1,26.7 9.8,27.3 9.1,27.3 Z M14.7,26.2 C14.7,26.9 14.3,27.4 13.8,27.4 C13.2,27.4 12.9,26.9 12.9,26.2 L12.9,23.7 L12,23.7 L12,26.3 C12,27.6 12.7,28.4 13.8,28.4 C15,28.4 15.6,27.6 15.6,26.3 L15.6,23.8 L14.7,23.8 L14.7,26.2 L14.7,26.2 Z M19.6,25.5 C19.6,25.8 19.6,26.3 19.6,26.5 C19.5,26.4 19.4,26.2 19.3,26 L17.7,23.6 L16.8,23.6 L16.8,28.1 L17.7,28.1 L17.7,26.1 C17.7,25.8 17.7,25.3 17.7,25.1 C17.8,25.2 17.9,25.4 18,25.6 L19.7,28.1 L20.5,28.1 L20.5,23.6 L19.6,23.6 L19.6,25.5 Z M23.1,23.6 L21.7,23.6 L21.7,28.1 L23,28.1 C24.2,28.1 25.3,27.4 25.3,25.8 C25.3,24.2 24.4,23.6 23.1,23.6 Z M23,27.3 L22.6,27.3 L22.6,24.5 L23,24.5 C24,24.5 24.4,25 24.4,25.9 C24.4,26.7 23.9,27.3 23,27.3 Z M28.1,24.4 C28.5,24.4 28.8,24.6 28.9,24.9 L29.7,24.5 C29.4,23.9 28.9,23.5 28,23.5 C26.8,23.5 26,24.5 26,25.8 C26,27.2 26.8,28.1 28,28.1 C28.8,28.1 29.4,27.7 29.7,27.1 L29,26.8 C28.8,27.2 28.5,27.4 28.1,27.4 C27.4,27.4 27,26.8 27,26 C27.1,25 27.5,24.4 28.1,24.4 Z M31.5,23.6 L30.6,23.6 L30.6,28.1 L33.3,28.1 L33.3,27.2 L31.5,27.2 L31.5,23.6 L31.5,23.6 Z M35.7,23.5 C34.5,23.5 33.7,24.5 33.7,25.8 C33.7,27.2 34.4,28.1 35.7,28.1 C36.9,28.1 37.7,27.1 37.7,25.8 C37.7,24.5 37,23.5 35.7,23.5 Z M35.7,27.3 C35,27.3 34.7,26.7 34.7,25.9 C34.7,25.1 35,24.5 35.7,24.5 C36.4,24.5 36.7,25.1 36.7,25.9 C36.8,26.7 36.5,27.3 35.7,27.3 Z M41.4,26.2 C41.4,26.9 41,27.4 40.5,27.4 C39.9,27.4 39.6,26.9 39.6,26.2 L39.6,23.7 L38.7,23.7 L38.7,26.3 C38.7,27.6 39.4,28.4 40.5,28.4 C41.7,28.4 42.3,27.6 42.3,26.3 L42.3,23.8 L41.4,23.8 L41.4,26.2 Z M44.8,23.6 L43.4,23.6 L43.4,28.1 L44.8,28.1 C46,28.1 47.1,27.4 47.1,25.8 C47.1,24.2 46.1,23.6 44.8,23.6 Z M44.8,27.3 L44.4,27.3 L44.4,24.5 L44.9,24.5 C45.9,24.5 46.3,25 46.3,25.9 C46.2,26.7 45.7,27.3 44.8,27.3 Z"/>
  </g>
</svg>
