<svg xmlns="http://www.w3.org/2000/svg" width="50" height="29" viewBox="0 0 50 29">
  <path fill="#ABABAB" d="M21.6 16L21.3 5.3C21.3 5 21 4.7 20.7 4.7 20.4 4.7 20.1 5 20.1 5.3L19.8 16 20.1 21.1C20.1 21.4 20.4 21.7 20.7 21.7 21 21.7 21.3 21.4 21.3 21.1L21.3 21.1 21.6 16zM19.5 16L19.1 4.9C19.1 4.6 18.9 4.4 18.6 4.4 18.3 4.4 18.1 4.6 18.1 4.9L17.7 16 18 21.2C18 21.5 18.2 21.7 18.5 21.7 18.8 21.7 19 21.5 19 21.2L19 21.2 19.5 16zM14.9 5C14.9 4.7 14.7 4.5 14.4 4.5 14.2 4.5 14 4.7 14 5L13.7 16 14 21.3C14 21.6 14.2 21.8 14.5 21.8 14.7 21.8 15 21.6 15 21.3L15.4 16.1 14.9 5zM17 4.6C17 4.3 16.8 4.1 16.5 4.1 16.2 4.1 16 4.3 16 4.6L15.7 16 16 21.2C16 21.5 16.2 21.7 16.5 21.7 16.8 21.7 17 21.5 17 21.2L17.4 16 17 4.6zM6.4 21.5C6.6 21.5 6.7 21.4 6.7 21.2L7.2 16 6.7 10.5C6.7 10.3 6.6 10.2 6.4 10.2 6.2 10.2 6.1 10.3 6.1 10.5L5.6 16 6 21.3C6.1 21.4 6.2 21.5 6.4 21.5zM23.7 16L23.4 3.3C23.4 3.1 23.3 2.9 23.1 2.8 23 2.7 22.9 2.7 22.7 2.7 22.6 2.7 22.5 2.7 22.4 2.8 22.2 2.9 22.1 3.1 22.1 3.3L22.1 3.4 21.9 16C21.9 16 22.1 21.1 22.1 21.1 22.1 21.1 22.1 21.1 22.1 21.1 22.1 21.2 22.2 21.4 22.2 21.5 22.3 21.6 22.5 21.7 22.7 21.7 22.9 21.7 23 21.6 23.1 21.5 23.2 21.4 23.3 21.2 23.3 21.1L23.3 20.6 23.7 16zM8.7 10.9C8.7 10.7 8.5 10.6 8.4 10.6 8.2 10.6 8.1 10.7 8.1 10.9L7.6 16 8 21.3C8 21.5 8.2 21.6 8.3 21.6 8.5 21.6 8.6 21.5 8.6 21.3L9.2 16 8.7 10.9zM10.4 7.3C10.2 7.3 10 7.5 10 7.7L9.6 16 10 21.3C10 21.5 10.2 21.7 10.4 21.7 10.6 21.7 10.8 21.5 10.8 21.3L10.8 21.3 11.2 16 10.8 7.7C10.7 7.5 10.6 7.3 10.4 7.3zM12.8 21.3L12.8 21.3 13.2 16 12.8 5.8C12.8 5.6 12.6 5.4 12.4 5.4 12.2 5.4 12 5.6 12 5.8L11.6 16 12 21.3C12 21.5 12.2 21.7 12.4 21.7 12.6 21.7 12.8 21.5 12.8 21.3zM25.2 1.5C25.1 1.4 25 1.4 24.9 1.4 24.7 1.4 24.6 1.5 24.5 1.6 24.3 1.7 24.3 1.9 24.2 2.1L24.2 2.2 23.9 16 24 18.5 24.1 21C24.1 21.4 24.4 21.7 24.8 21.7 25.2 21.7 25.5 21.4 25.5 21L25.5 21 25.5 21 25.8 16 25.8 16 25.6 2.1C25.6 1.9 25.4 1.7 25.2 1.5zM.6 18.9C.7 18.9.8 18.8.8 18.7L1.2 16 .8 13.2C.8 13.1.7 13 .6 13 .5 13 .4 13.1.4 13.2L0 16 .4 18.7C.4 18.8.5 18.9.6 18.9zM2.4 20.6C2.5 20.6 2.6 20.5 2.6 20.4L3.2 16 2.6 11.5C2.6 11.4 2.5 11.3 2.4 11.3 2.3 11.3 2.2 11.4 2.2 11.5 2.2 11.5 1.7 16 1.7 16L2.2 20.4C2.2 20.5 2.3 20.6 2.4 20.6zM4.4 21.3C4.5 21.3 4.6 21.2 4.7 21.1L5.2 16 4.7 10.7C4.7 10.6 4.6 10.5 4.4 10.5 4.3 10.5 4.2 10.6 4.1 10.7 4.1 10.7 3.6 16 3.6 16L4.1 21.1C4.1 21.2 4.2 21.3 4.4 21.3zM43.9 9.4C43.1 9.4 42.3 9.6 41.5 9.9 41 4.3 36.3 0 30.7 0 29.3 0 28 .3 26.8.7 26.3.9 26.2 1.1 26.2 1.4L26.2 21C26.2 21.4 26.5 21.7 26.9 21.7 26.9 21.7 43.9 21.7 43.9 21.7 47.3 21.7 50 19 50 15.6 50 12.2 47.2 9.4 43.9 9.4zM4.9 25.4C4.2 25.2 4 25.1 4 24.8 4 24.6 4.2 24.4 4.6 24.4 5 24.4 5.3 24.6 5.6 24.9L6.3 24.3C5.9 23.9 5.4 23.6 4.6 23.6 3.7 23.6 3 24.1 3 24.9 3 25.8 3.6 26.1 4.4 26.3 5.3 26.5 5.4 26.6 5.4 26.9 5.4 27.2 5.1 27.4 4.6 27.4 4.2 27.4 3.8 27.3 3.4 26.9L2.7 27.5C3 28 3.7 28.3 4.5 28.3 5.7 28.3 6.3 27.7 6.3 26.9 6.4 25.8 5.6 25.6 4.9 25.4zM9.1 23.5C7.9 23.5 7.1 24.5 7.1 25.8 7.1 27.2 7.8 28.1 9.1 28.1 10.3 28.1 11.1 27.1 11.1 25.8 11.1 24.5 10.3 23.5 9.1 23.5zM9.1 27.3C8.4 27.3 8.1 26.7 8.1 25.9 8.1 25.1 8.4 24.5 9.1 24.5 9.8 24.5 10.1 25.1 10.1 25.9 10.1 26.7 9.8 27.3 9.1 27.3zM14.7 26.2C14.7 26.9 14.3 27.4 13.8 27.4 13.2 27.4 12.9 26.9 12.9 26.2L12.9 23.7 12 23.7 12 26.3C12 27.6 12.7 28.4 13.8 28.4 15 28.4 15.6 27.6 15.6 26.3L15.6 23.8 14.7 23.8 14.7 26.2 14.7 26.2zM19.6 25.5C19.6 25.8 19.6 26.3 19.6 26.5 19.5 26.4 19.4 26.2 19.3 26L17.7 23.6 16.8 23.6 16.8 28.1 17.7 28.1 17.7 26.1C17.7 25.8 17.7 25.3 17.7 25.1 17.8 25.2 17.9 25.4 18 25.6L19.7 28.1 20.5 28.1 20.5 23.6 19.6 23.6 19.6 25.5zM23.1 23.6L21.7 23.6 21.7 28.1 23 28.1C24.2 28.1 25.3 27.4 25.3 25.8 25.3 24.2 24.4 23.6 23.1 23.6zM23 27.3L22.6 27.3 22.6 24.5 23 24.5C24 24.5 24.4 25 24.4 25.9 24.4 26.7 23.9 27.3 23 27.3zM28.1 24.4C28.5 24.4 28.8 24.6 28.9 24.9L29.7 24.5C29.4 23.9 28.9 23.5 28 23.5 26.8 23.5 26 24.5 26 25.8 26 27.2 26.8 28.1 28 28.1 28.8 28.1 29.4 27.7 29.7 27.1L29 26.8C28.8 27.2 28.5 27.4 28.1 27.4 27.4 27.4 27 26.8 27 26 27.1 25 27.5 24.4 28.1 24.4zM31.5 23.6L30.6 23.6 30.6 28.1 33.3 28.1 33.3 27.2 31.5 27.2 31.5 23.6 31.5 23.6zM35.7 23.5C34.5 23.5 33.7 24.5 33.7 25.8 33.7 27.2 34.4 28.1 35.7 28.1 36.9 28.1 37.7 27.1 37.7 25.8 37.7 24.5 37 23.5 35.7 23.5zM35.7 27.3C35 27.3 34.7 26.7 34.7 25.9 34.7 25.1 35 24.5 35.7 24.5 36.4 24.5 36.7 25.1 36.7 25.9 36.8 26.7 36.5 27.3 35.7 27.3zM41.4 26.2C41.4 26.9 41 27.4 40.5 27.4 39.9 27.4 39.6 26.9 39.6 26.2L39.6 23.7 38.7 23.7 38.7 26.3C38.7 27.6 39.4 28.4 40.5 28.4 41.7 28.4 42.3 27.6 42.3 26.3L42.3 23.8 41.4 23.8 41.4 26.2zM44.8 23.6L43.4 23.6 43.4 28.1 44.8 28.1C46 28.1 47.1 27.4 47.1 25.8 47.1 24.2 46.1 23.6 44.8 23.6zM44.8 27.3L44.4 27.3 44.4 24.5 44.9 24.5C45.9 24.5 46.3 25 46.3 25.9 46.2 26.7 45.7 27.3 44.8 27.3z"/>
</svg>
