<?xml version="1.0" encoding="utf-8"?>
<!-- Generator: Adobe Illustrator 20.1.0, SVG Export Plug-In . SVG Version: 6.00 Build 0)  -->
<svg version="1.1" xmlns="http://www.w3.org/2000/svg" xmlns:xlink="http://www.w3.org/1999/xlink" x="0px" y="0px"
	 viewBox="0 0 50 50" style="enable-background:new 0 0 50 50;" xml:space="preserve">
<style type="text/css">
	.st0{display:none;}
	.st1{display:inline;}
	.st2{fill:#FFFFFF;}
	.st3{fill:#ABABAB;}
	.st4{fill:url(#SVGID_1_);}
	.st5{fill:url(#SVGID_2_);}
	.st6{fill:url(#SVGID_3_);}
	.st7{fill:url(#SVGID_4_);}
	.st8{fill:url(#SVGID_5_);}
	.st9{fill:url(#SVGID_6_);}
	.st10{fill:url(#SVGID_7_);}
	.st11{fill:url(#SVGID_8_);}
	.st12{fill:url(#SVGID_9_);}
	.st13{fill:url(#SVGID_10_);}
	.st14{fill:url(#SVGID_11_);}
	.st15{fill:url(#SVGID_12_);}
	.st16{fill:url(#SVGID_13_);}
	.st17{fill:url(#SVGID_14_);}
	.st18{fill:url(#SVGID_15_);}
	.st19{fill:url(#SVGID_16_);}
	.st20{fill:url(#SVGID_17_);}
	.st21{fill:url(#SVGID_18_);}
	.st22{fill:url(#SVGID_19_);}
	.st23{fill:url(#SVGID_20_);}
	.st24{fill:#F04923;}
</style>
<g id="XMLID_2_" class="st0">
	<g id="Lozenge_2_" class="st1">
		<g>
			<path class="st2" d="M49.5,7.6c0,0-0.5-3.4-2-5c-1.9-2-4-2-5-2.1C35.5,0,25,0,25,0h0c0,0-10.5,0-17.5,0.5c-1,0.1-3.1,0.1-5,2.1
				c-1.5,1.5-2,5-2,5S0,11.6,0,15.7v3.8c0,4,0.5,8.1,0.5,8.1s0.5,3.4,2,5c1.9,2,4.4,1.9,5.5,2.1c4,0.4,17,0.5,17,0.5
				s10.5,0,17.5-0.5c1-0.1,3.1-0.1,5-2.1c1.5-1.5,2-5,2-5s0.5-4,0.5-8.1v-3.8C50,11.6,49.5,7.6,49.5,7.6z M19.8,24.1l0-14l13.5,7
				L19.8,24.1z"/>
		</g>
	</g>
</g>
<g id="XMLID_1_" class="st0">
	<g class="st1">
		<polygon class="st3" points="23.4,21.1 23.4,21.1 23.4,21.1 		"/>
		<path class="st3" d="M21.6,16L21.3,5.3c0-0.3-0.3-0.6-0.6-0.6c-0.3,0-0.6,0.3-0.6,0.6L19.8,16l0.3,5.1c0,0.3,0.3,0.6,0.6,0.6
			c0.3,0,0.6-0.3,0.6-0.6v0L21.6,16z"/>
		<path class="st3" d="M19.5,16L19.1,4.9c0-0.3-0.2-0.5-0.5-0.5c-0.3,0-0.5,0.2-0.5,0.5L17.7,16l0.3,5.2c0,0.3,0.2,0.5,0.5,0.5
			c0.3,0,0.5-0.2,0.5-0.5v0L19.5,16z"/>
		<circle class="st3" cx="23.4" cy="21.1" r="0"/>
		<polygon class="st3" points="23.4,21.1 23.4,21.1 23.4,21.1 		"/>
		<polygon class="st3" points="14.9,21.2 14.9,21.2 14.9,21.2 		"/>
		<path class="st3" d="M14.9,5c0-0.3-0.2-0.5-0.5-0.5C14.2,4.5,14,4.7,14,5l-0.3,11l0.3,5.3c0,0.3,0.2,0.5,0.5,0.5
			c0.2,0,0.5-0.2,0.5-0.5l0.4-5.2L14.9,5z"/>
		<polygon class="st3" points="17,21.2 17,21.2 17,21.2 		"/>
		<path class="st3" d="M17,4.6c0-0.3-0.2-0.5-0.5-0.5c-0.3,0-0.5,0.2-0.5,0.5L15.7,16l0.3,5.2c0,0.3,0.2,0.5,0.5,0.5
			c0.3,0,0.5-0.2,0.5-0.5l0.4-5.2L17,4.6z"/>
		<path class="st3" d="M6.4,21.5c0.2,0,0.3-0.1,0.3-0.3L7.2,16l-0.5-5.5c0-0.2-0.1-0.3-0.3-0.3c-0.2,0-0.3,0.1-0.3,0.3L5.6,16
			l0.4,5.3C6.1,21.4,6.2,21.5,6.4,21.5z"/>
		<path class="st3" d="M23.7,16L23.4,3.3c0-0.2-0.1-0.4-0.3-0.5c-0.1-0.1-0.2-0.1-0.4-0.1c-0.1,0-0.2,0-0.3,0.1
			c-0.2,0.1-0.3,0.3-0.3,0.5l0,0.1L21.9,16c0,0,0.2,5.1,0.2,5.1c0,0,0,0,0,0c0,0.1,0.1,0.3,0.1,0.4c0.1,0.1,0.3,0.2,0.5,0.2
			c0.2,0,0.3-0.1,0.4-0.2c0.1-0.1,0.2-0.3,0.2-0.4l0-0.5L23.7,16z"/>
		<path class="st3" d="M8.7,10.9c0-0.2-0.2-0.3-0.3-0.3c-0.2,0-0.3,0.1-0.3,0.3L7.6,16L8,21.3c0,0.2,0.2,0.3,0.3,0.3
			c0.2,0,0.3-0.1,0.3-0.3L9.2,16L8.7,10.9z"/>
		<path class="st3" d="M10.4,7.3c-0.2,0-0.4,0.2-0.4,0.4L9.6,16l0.4,5.3c0,0.2,0.2,0.4,0.4,0.4c0.2,0,0.4-0.2,0.4-0.4v0l0.4-5.3
			l-0.4-8.3C10.7,7.5,10.6,7.3,10.4,7.3z"/>
		<path class="st3" d="M12.8,21.3L12.8,21.3l0.4-5.3L12.8,5.8c0-0.2-0.2-0.4-0.4-0.4c-0.2,0-0.4,0.2-0.4,0.4L11.6,16l0.4,5.3
			c0,0.2,0.2,0.4,0.4,0.4C12.6,21.7,12.8,21.5,12.8,21.3z"/>
		<polygon class="st3" points="8.7,21.3 8.7,21.3 8.7,21.3 		"/>
		<path class="st3" d="M25.2,1.5c-0.1-0.1-0.2-0.1-0.3-0.1c-0.2,0-0.3,0.1-0.4,0.2c-0.2,0.1-0.2,0.3-0.3,0.5l0,0.1L23.9,16l0.1,2.5
			l0.1,2.5c0,0.4,0.3,0.7,0.7,0.7c0.4,0,0.7-0.3,0.7-0.7v0v0l0.3-5v0L25.6,2.1C25.6,1.9,25.4,1.7,25.2,1.5z"/>
		<path class="st3" d="M0.6,18.9c0.1,0,0.2-0.1,0.2-0.2L1.2,16l-0.4-2.8c0-0.1-0.1-0.2-0.2-0.2c-0.1,0-0.2,0.1-0.2,0.2L0,16l0.4,2.7
			C0.4,18.8,0.5,18.9,0.6,18.9z"/>
		<path class="st3" d="M2.4,20.6c0.1,0,0.2-0.1,0.2-0.2L3.2,16l-0.6-4.5c0-0.1-0.1-0.2-0.2-0.2c-0.1,0-0.2,0.1-0.2,0.2
			c0,0-0.5,4.5-0.5,4.5l0.5,4.4C2.2,20.5,2.3,20.6,2.4,20.6z"/>
		<path class="st3" d="M4.4,21.3c0.1,0,0.2-0.1,0.3-0.2L5.2,16l-0.5-5.3c0-0.1-0.1-0.2-0.3-0.2c-0.1,0-0.2,0.1-0.3,0.2
			c0,0-0.5,5.3-0.5,5.3l0.5,5.1C4.1,21.2,4.2,21.3,4.4,21.3z"/>
		<path class="st3" d="M43.9,9.4c-0.8,0-1.6,0.2-2.4,0.5C41,4.3,36.3,0,30.7,0c-1.4,0-2.7,0.3-3.9,0.7c-0.5,0.2-0.6,0.4-0.6,0.7V21
			c0,0.4,0.3,0.7,0.7,0.7c0,0,17,0,17,0c3.4,0,6.1-2.7,6.1-6.1C50,12.2,47.2,9.4,43.9,9.4z"/>
		<path class="st3" d="M4.9,25.4C4.2,25.2,4,25.1,4,24.8c0-0.2,0.2-0.4,0.6-0.4c0.4,0,0.7,0.2,1,0.5l0.7-0.6
			c-0.4-0.4-0.9-0.7-1.7-0.7c-0.9,0-1.6,0.5-1.6,1.3c0,0.9,0.6,1.2,1.4,1.4c0.9,0.2,1,0.3,1,0.6c0,0.3-0.3,0.5-0.8,0.5
			c-0.4,0-0.8-0.1-1.2-0.5l-0.7,0.6c0.3,0.5,1,0.8,1.8,0.8c1.2,0,1.8-0.6,1.8-1.4C6.4,25.8,5.6,25.6,4.9,25.4z M9.1,23.5
			c-1.2,0-2,1-2,2.3c0,1.4,0.7,2.3,2,2.3c1.2,0,2-1,2-2.3C11.1,24.5,10.3,23.5,9.1,23.5z M9.1,27.3c-0.7,0-1-0.6-1-1.4
			c0-0.8,0.3-1.4,1-1.4c0.7,0,1,0.6,1,1.4C10.1,26.7,9.8,27.3,9.1,27.3z M14.7,26.2c0,0.7-0.4,1.2-0.9,1.2c-0.6,0-0.9-0.5-0.9-1.2
			v-2.5H12v2.6c0,1.3,0.7,2.1,1.8,2.1c1.2,0,1.8-0.8,1.8-2.1v-2.5h-0.9V26.2z M19.6,25.5c0,0.3,0,0.8,0,1c-0.1-0.1-0.2-0.3-0.3-0.5
			l-1.6-2.4h-0.9v4.5h0.9v-2c0-0.3,0-0.8,0-1c0.1,0.1,0.2,0.3,0.3,0.5l1.7,2.5h0.8v-4.5h-0.9V25.5z M23.1,23.6h-1.4v4.5H23
			c1.2,0,2.3-0.7,2.3-2.3C25.3,24.2,24.4,23.6,23.1,23.6z M23,27.3h-0.4v-2.8H23c1,0,1.4,0.5,1.4,1.4C24.4,26.7,23.9,27.3,23,27.3z
			 M28.1,24.4c0.4,0,0.7,0.2,0.8,0.5l0.8-0.4c-0.3-0.6-0.8-1-1.7-1c-1.2,0-2,1-2,2.3c0,1.4,0.8,2.3,2,2.3c0.8,0,1.4-0.4,1.7-1
			L29,26.8c-0.2,0.4-0.5,0.6-0.9,0.6c-0.7,0-1.1-0.6-1.1-1.4C27.1,25,27.5,24.4,28.1,24.4z M31.5,23.6h-0.9v4.5h2.7v-0.9h-1.8V23.6z
			 M35.7,23.5c-1.2,0-2,1-2,2.3c0,1.4,0.7,2.3,2,2.3c1.2,0,2-1,2-2.3C37.7,24.5,37,23.5,35.7,23.5z M35.7,27.3c-0.7,0-1-0.6-1-1.4
			c0-0.8,0.3-1.4,1-1.4c0.7,0,1,0.6,1,1.4C36.8,26.7,36.5,27.3,35.7,27.3z M41.4,26.2c0,0.7-0.4,1.2-0.9,1.2c-0.6,0-0.9-0.5-0.9-1.2
			v-2.5h-0.9v2.6c0,1.3,0.7,2.1,1.8,2.1c1.2,0,1.8-0.8,1.8-2.1v-2.5h-0.9V26.2z M44.8,23.6h-1.4v4.5h1.4c1.2,0,2.3-0.7,2.3-2.3
			C47.1,24.2,46.1,23.6,44.8,23.6z M44.8,27.3h-0.4v-2.8h0.5c1,0,1.4,0.5,1.4,1.4C46.2,26.7,45.7,27.3,44.8,27.3z"/>
	</g>
</g>
<g id="XMLID_3_">
	<g>
		<linearGradient id="SVGID_1_" gradientUnits="userSpaceOnUse" x1="23.4163" y1="14.8233" x2="23.4163" y2="27.3175">
			<stop  offset="0" style="stop-color:#F6871F"/>
			<stop  offset="0.2051" style="stop-color:#F58120"/>
			<stop  offset="0.5378" style="stop-color:#F37021"/>
			<stop  offset="0.9544" style="stop-color:#F04E23"/>
			<stop  offset="1" style="stop-color:#F04923"/>
		</linearGradient>
		<polygon class="st4" points="23.4,21.1 23.4,21.1 23.4,21.1 		"/>
		<linearGradient id="SVGID_2_" gradientUnits="userSpaceOnUse" x1="20.6885" y1="-3.555726e-06" x2="20.6885" y2="21.7136">
			<stop  offset="0" style="stop-color:#F6871F"/>
			<stop  offset="0.2051" style="stop-color:#F58120"/>
			<stop  offset="0.5378" style="stop-color:#F37021"/>
			<stop  offset="0.9544" style="stop-color:#F04E23"/>
			<stop  offset="1" style="stop-color:#F04923"/>
		</linearGradient>
		<path class="st5" d="M21.6,16L21.3,5.3c0-0.3-0.3-0.6-0.6-0.6c-0.3,0-0.6,0.3-0.6,0.6L19.8,16l0.3,5.1c0,0.3,0.3,0.6,0.6,0.6
			c0.3,0,0.6-0.3,0.6-0.6v0L21.6,16z"/>
		<linearGradient id="SVGID_3_" gradientUnits="userSpaceOnUse" x1="18.5973" y1="-5.728024e-06" x2="18.5973" y2="21.7136">
			<stop  offset="0" style="stop-color:#F6871F"/>
			<stop  offset="0.2051" style="stop-color:#F58120"/>
			<stop  offset="0.5378" style="stop-color:#F37021"/>
			<stop  offset="0.9544" style="stop-color:#F04E23"/>
			<stop  offset="1" style="stop-color:#F04923"/>
		</linearGradient>
		<path class="st6" d="M19.5,16L19.1,4.9c0-0.3-0.2-0.5-0.5-0.5c-0.3,0-0.5,0.2-0.5,0.5L17.7,16l0.3,5.2c0,0.3,0.2,0.5,0.5,0.5
			c0.3,0,0.5-0.2,0.5-0.5v0L19.5,16z"/>
		<linearGradient id="SVGID_4_" gradientUnits="userSpaceOnUse" x1="23.4164" y1="1.779133e-02" x2="23.4164" y2="17.1054">
			<stop  offset="0" style="stop-color:#F6871F"/>
			<stop  offset="0.2051" style="stop-color:#F58120"/>
			<stop  offset="0.5378" style="stop-color:#F37021"/>
			<stop  offset="0.9544" style="stop-color:#F04E23"/>
			<stop  offset="1" style="stop-color:#F04923"/>
		</linearGradient>
		<circle class="st7" cx="23.4" cy="21.1" r="0"/>
		<linearGradient id="SVGID_5_" gradientUnits="userSpaceOnUse" x1="23.4163" y1="14.2722" x2="23.4163" y2="27.8688">
			<stop  offset="0" style="stop-color:#F6871F"/>
			<stop  offset="0.2051" style="stop-color:#F58120"/>
			<stop  offset="0.5378" style="stop-color:#F37021"/>
			<stop  offset="0.9544" style="stop-color:#F04E23"/>
			<stop  offset="1" style="stop-color:#F04923"/>
		</linearGradient>
		<polygon class="st8" points="23.4,21.1 23.4,21.1 23.4,21.1 		"/>
		<linearGradient id="SVGID_6_" gradientUnits="userSpaceOnUse" x1="14.9055" y1="-1.344677e-02" x2="14.9055" y2="21.714">
			<stop  offset="0" style="stop-color:#F6871F"/>
			<stop  offset="0.2051" style="stop-color:#F58120"/>
			<stop  offset="0.5378" style="stop-color:#F37021"/>
			<stop  offset="0.9544" style="stop-color:#F04E23"/>
			<stop  offset="1" style="stop-color:#F04923"/>
		</linearGradient>
		<polygon class="st9" points="14.9,21.2 14.9,21.2 14.9,21.2 		"/>
		<linearGradient id="SVGID_7_" gradientUnits="userSpaceOnUse" x1="14.4634" y1="-8.667368e-06" x2="14.4634" y2="21.7136">
			<stop  offset="0" style="stop-color:#F6871F"/>
			<stop  offset="0.2051" style="stop-color:#F58120"/>
			<stop  offset="0.5378" style="stop-color:#F37021"/>
			<stop  offset="0.9544" style="stop-color:#F04E23"/>
			<stop  offset="1" style="stop-color:#F04923"/>
		</linearGradient>
		<path class="st10" d="M14.9,5c0-0.3-0.2-0.5-0.5-0.5C14.2,4.5,14,4.7,14,5l-0.3,11l0.3,5.3c0,0.3,0.2,0.5,0.5,0.5
			c0.2,0,0.5-0.2,0.5-0.5l0.4-5.2L14.9,5z"/>
		<linearGradient id="SVGID_8_" gradientUnits="userSpaceOnUse" x1="17.0089" y1="4.948407e-03" x2="17.0089" y2="21.7135">
			<stop  offset="0" style="stop-color:#F6871F"/>
			<stop  offset="0.2051" style="stop-color:#F58120"/>
			<stop  offset="0.5378" style="stop-color:#F37021"/>
			<stop  offset="0.9544" style="stop-color:#F04E23"/>
			<stop  offset="1" style="stop-color:#F04923"/>
		</linearGradient>
		<polygon class="st11" points="17,21.2 17,21.2 17,21.2 		"/>
		<linearGradient id="SVGID_9_" gradientUnits="userSpaceOnUse" x1="16.5224" y1="-5.080900e-06" x2="16.5224" y2="21.7137">
			<stop  offset="0" style="stop-color:#F6871F"/>
			<stop  offset="0.2051" style="stop-color:#F58120"/>
			<stop  offset="0.5378" style="stop-color:#F37021"/>
			<stop  offset="0.9544" style="stop-color:#F04E23"/>
			<stop  offset="1" style="stop-color:#F04923"/>
		</linearGradient>
		<path class="st12" d="M17,4.6c0-0.3-0.2-0.5-0.5-0.5c-0.3,0-0.5,0.2-0.5,0.5L15.7,16l0.3,5.2c0,0.3,0.2,0.5,0.5,0.5
			c0.3,0,0.5-0.2,0.5-0.5l0.4-5.2L17,4.6z"/>
		<linearGradient id="SVGID_10_" gradientUnits="userSpaceOnUse" x1="6.3892" y1="-1.098619e-05" x2="6.3892" y2="21.7137">
			<stop  offset="0" style="stop-color:#F6871F"/>
			<stop  offset="0.2051" style="stop-color:#F58120"/>
			<stop  offset="0.5378" style="stop-color:#F37021"/>
			<stop  offset="0.9544" style="stop-color:#F04E23"/>
			<stop  offset="1" style="stop-color:#F04923"/>
		</linearGradient>
		<path class="st13" d="M6.4,21.5c0.2,0,0.3-0.1,0.3-0.3L7.2,16l-0.5-5.5c0-0.2-0.1-0.3-0.3-0.3c-0.2,0-0.3,0.1-0.3,0.3L5.6,16
			l0.4,5.3C6.1,21.4,6.2,21.5,6.4,21.5z"/>
		<linearGradient id="SVGID_11_" gradientUnits="userSpaceOnUse" x1="22.7957" y1="7.326989e-07" x2="22.7957" y2="21.7137">
			<stop  offset="0" style="stop-color:#F6871F"/>
			<stop  offset="0.2051" style="stop-color:#F58120"/>
			<stop  offset="0.5378" style="stop-color:#F37021"/>
			<stop  offset="0.9544" style="stop-color:#F04E23"/>
			<stop  offset="1" style="stop-color:#F04923"/>
		</linearGradient>
		<path class="st14" d="M23.7,16L23.4,3.3c0-0.2-0.1-0.4-0.3-0.5c-0.1-0.1-0.2-0.1-0.4-0.1c-0.1,0-0.2,0-0.3,0.1
			c-0.2,0.1-0.3,0.3-0.3,0.5l0,0.1L21.9,16c0,0,0.2,5.1,0.2,5.1c0,0,0,0,0,0c0,0.1,0.1,0.3,0.1,0.4c0.1,0.1,0.3,0.2,0.5,0.2
			c0.2,0,0.3-0.1,0.4-0.2c0.1-0.1,0.2-0.3,0.2-0.4l0-0.5L23.7,16z"/>
		<linearGradient id="SVGID_12_" gradientUnits="userSpaceOnUse" x1="8.3834" y1="1.896082e-06" x2="8.3834" y2="21.7137">
			<stop  offset="0" style="stop-color:#F6871F"/>
			<stop  offset="0.2051" style="stop-color:#F58120"/>
			<stop  offset="0.5378" style="stop-color:#F37021"/>
			<stop  offset="0.9544" style="stop-color:#F04E23"/>
			<stop  offset="1" style="stop-color:#F04923"/>
		</linearGradient>
		<path class="st15" d="M8.7,10.9c0-0.2-0.2-0.3-0.3-0.3c-0.2,0-0.3,0.1-0.3,0.3L7.6,16L8,21.3c0,0.2,0.2,0.3,0.3,0.3
			c0.2,0,0.3-0.1,0.3-0.3L9.2,16L8.7,10.9z"/>
		<linearGradient id="SVGID_13_" gradientUnits="userSpaceOnUse" x1="10.394" y1="-7.034214e-06" x2="10.394" y2="21.7136">
			<stop  offset="0" style="stop-color:#F6871F"/>
			<stop  offset="0.2051" style="stop-color:#F58120"/>
			<stop  offset="0.5378" style="stop-color:#F37021"/>
			<stop  offset="0.9544" style="stop-color:#F04E23"/>
			<stop  offset="1" style="stop-color:#F04923"/>
		</linearGradient>
		<path class="st16" d="M10.4,7.3c-0.2,0-0.4,0.2-0.4,0.4L9.6,16l0.4,5.3c0,0.2,0.2,0.4,0.4,0.4c0.2,0,0.4-0.2,0.4-0.4v0l0.4-5.3
			l-0.4-8.3C10.7,7.5,10.6,7.3,10.4,7.3z"/>
		<linearGradient id="SVGID_14_" gradientUnits="userSpaceOnUse" x1="12.3896" y1="-1.295213e-05" x2="12.3896" y2="21.7137">
			<stop  offset="0" style="stop-color:#F6871F"/>
			<stop  offset="0.2051" style="stop-color:#F58120"/>
			<stop  offset="0.5378" style="stop-color:#F37021"/>
			<stop  offset="0.9544" style="stop-color:#F04E23"/>
			<stop  offset="1" style="stop-color:#F04923"/>
		</linearGradient>
		<path class="st17" d="M12.8,21.3L12.8,21.3l0.4-5.3L12.8,5.8c0-0.2-0.2-0.4-0.4-0.4c-0.2,0-0.4,0.2-0.4,0.4L11.6,16l0.4,5.3
			c0,0.2,0.2,0.4,0.4,0.4C12.6,21.7,12.8,21.5,12.8,21.3z"/>
		<linearGradient id="SVGID_15_" gradientUnits="userSpaceOnUse" x1="8.6916" y1="17.2582" x2="8.6916" y2="25.3426">
			<stop  offset="0" style="stop-color:#F6871F"/>
			<stop  offset="0.2051" style="stop-color:#F58120"/>
			<stop  offset="0.5378" style="stop-color:#F37021"/>
			<stop  offset="0.9544" style="stop-color:#F04E23"/>
			<stop  offset="1" style="stop-color:#F04923"/>
		</linearGradient>
		<polygon class="st18" points="8.7,21.3 8.7,21.3 8.7,21.3 		"/>
		<linearGradient id="SVGID_16_" gradientUnits="userSpaceOnUse" x1="24.8932" y1="3.137861e-06" x2="24.8932" y2="21.7136">
			<stop  offset="0" style="stop-color:#F6871F"/>
			<stop  offset="0.2051" style="stop-color:#F58120"/>
			<stop  offset="0.5378" style="stop-color:#F37021"/>
			<stop  offset="0.9544" style="stop-color:#F04E23"/>
			<stop  offset="1" style="stop-color:#F04923"/>
		</linearGradient>
		<path class="st19" d="M25.2,1.5c-0.1-0.1-0.2-0.1-0.3-0.1c-0.2,0-0.3,0.1-0.4,0.2c-0.2,0.1-0.2,0.3-0.3,0.5l0,0.1L23.9,16l0.1,2.5
			l0.1,2.5c0,0.4,0.3,0.7,0.7,0.7c0.4,0,0.7-0.3,0.7-0.7v0v0l0.3-5v0L25.6,2.1C25.6,1.9,25.4,1.7,25.2,1.5z"/>
		<linearGradient id="SVGID_17_" gradientUnits="userSpaceOnUse" x1="0.5996" y1="-3.656377e-06" x2="0.5996" y2="21.7137">
			<stop  offset="0" style="stop-color:#F6871F"/>
			<stop  offset="0.2051" style="stop-color:#F58120"/>
			<stop  offset="0.5378" style="stop-color:#F37021"/>
			<stop  offset="0.9544" style="stop-color:#F04E23"/>
			<stop  offset="1" style="stop-color:#F04923"/>
		</linearGradient>
		<path class="st20" d="M0.6,18.9c0.1,0,0.2-0.1,0.2-0.2L1.2,16l-0.4-2.8c0-0.1-0.1-0.2-0.2-0.2c-0.1,0-0.2,0.1-0.2,0.2L0,16
			l0.4,2.7C0.4,18.8,0.5,18.9,0.6,18.9z"/>
		<linearGradient id="SVGID_18_" gradientUnits="userSpaceOnUse" x1="2.4484" y1="-1.409728e-05" x2="2.4484" y2="21.7136">
			<stop  offset="0" style="stop-color:#F6871F"/>
			<stop  offset="0.2051" style="stop-color:#F58120"/>
			<stop  offset="0.5378" style="stop-color:#F37021"/>
			<stop  offset="0.9544" style="stop-color:#F04E23"/>
			<stop  offset="1" style="stop-color:#F04923"/>
		</linearGradient>
		<path class="st21" d="M2.4,20.6c0.1,0,0.2-0.1,0.2-0.2L3.2,16l-0.6-4.5c0-0.1-0.1-0.2-0.2-0.2c-0.1,0-0.2,0.1-0.2,0.2
			c0,0-0.5,4.5-0.5,4.5l0.5,4.4C2.2,20.5,2.3,20.6,2.4,20.6z"/>
		<linearGradient id="SVGID_19_" gradientUnits="userSpaceOnUse" x1="4.4106" y1="-3.618450e-06" x2="4.4106" y2="21.7136">
			<stop  offset="0" style="stop-color:#F6871F"/>
			<stop  offset="0.2051" style="stop-color:#F58120"/>
			<stop  offset="0.5378" style="stop-color:#F37021"/>
			<stop  offset="0.9544" style="stop-color:#F04E23"/>
			<stop  offset="1" style="stop-color:#F04923"/>
		</linearGradient>
		<path class="st22" d="M4.4,21.3c0.1,0,0.2-0.1,0.3-0.2L5.2,16l-0.5-5.3c0-0.1-0.1-0.2-0.3-0.2c-0.1,0-0.2,0.1-0.3,0.2
			c0,0-0.5,5.3-0.5,5.3l0.5,5.1C4.1,21.2,4.2,21.3,4.4,21.3z"/>
		<linearGradient id="SVGID_20_" gradientUnits="userSpaceOnUse" x1="38.0694" y1="0" x2="38.0694" y2="21.6834">
			<stop  offset="0" style="stop-color:#F7941D"/>
			<stop  offset="0" style="stop-color:#F78E1E"/>
			<stop  offset="0" style="stop-color:#F6871F"/>
			<stop  offset="0.2058" style="stop-color:#F58120"/>
			<stop  offset="0.5413" style="stop-color:#F36F21"/>
			<stop  offset="0.9627" style="stop-color:#F04D23"/>
			<stop  offset="1" style="stop-color:#F04923"/>
		</linearGradient>
		<path class="st23" d="M43.9,9.4c-0.8,0-1.6,0.2-2.4,0.5C41,4.3,36.3,0,30.7,0c-1.4,0-2.7,0.3-3.9,0.7c-0.5,0.2-0.6,0.4-0.6,0.7V21
			c0,0.4,0.3,0.7,0.7,0.7c0,0,17,0,17,0c3.4,0,6.1-2.7,6.1-6.1C50,12.2,47.2,9.4,43.9,9.4z"/>
		<path class="st24" d="M4.9,25.4C4.2,25.2,4,25.1,4,24.8c0-0.2,0.2-0.4,0.6-0.4c0.4,0,0.7,0.2,1,0.5l0.7-0.6
			c-0.4-0.4-0.9-0.7-1.7-0.7c-0.9,0-1.6,0.5-1.6,1.3c0,0.9,0.6,1.2,1.4,1.4c0.9,0.2,1,0.3,1,0.6c0,0.3-0.3,0.5-0.8,0.5
			c-0.4,0-0.8-0.1-1.2-0.5l-0.7,0.6c0.3,0.5,1,0.8,1.8,0.8c1.2,0,1.8-0.6,1.8-1.4C6.4,25.8,5.6,25.6,4.9,25.4z M9.1,23.5
			c-1.2,0-2,1-2,2.3c0,1.4,0.7,2.3,2,2.3c1.2,0,2-1,2-2.3C11.1,24.5,10.3,23.5,9.1,23.5z M9.1,27.3c-0.7,0-1-0.6-1-1.4
			c0-0.8,0.3-1.4,1-1.4c0.7,0,1,0.6,1,1.4C10.1,26.7,9.8,27.3,9.1,27.3z M14.7,26.2c0,0.7-0.4,1.2-0.9,1.2c-0.6,0-0.9-0.5-0.9-1.2
			v-2.5H12v2.6c0,1.3,0.7,2.1,1.8,2.1c1.2,0,1.8-0.8,1.8-2.1v-2.5h-0.9V26.2z M19.6,25.5c0,0.3,0,0.8,0,1c-0.1-0.1-0.2-0.3-0.3-0.5
			l-1.6-2.4h-0.9v4.5h0.9v-2c0-0.3,0-0.8,0-1c0.1,0.1,0.2,0.3,0.3,0.5l1.7,2.5h0.8v-4.5h-0.9V25.5z M23.1,23.6h-1.4v4.5H23
			c1.2,0,2.3-0.7,2.3-2.3C25.3,24.2,24.4,23.6,23.1,23.6z M23,27.3h-0.4v-2.8H23c1,0,1.4,0.5,1.4,1.4C24.4,26.7,23.9,27.3,23,27.3z
			 M28.1,24.4c0.4,0,0.7,0.2,0.8,0.5l0.8-0.4c-0.3-0.6-0.8-1-1.7-1c-1.2,0-2,1-2,2.3c0,1.4,0.8,2.3,2,2.3c0.8,0,1.4-0.4,1.7-1
			L29,26.8c-0.2,0.4-0.5,0.6-0.9,0.6c-0.7,0-1.1-0.6-1.1-1.4C27.1,25,27.5,24.4,28.1,24.4z M31.5,23.6h-0.9v4.5h2.7v-0.9h-1.8V23.6z
			 M35.7,23.5c-1.2,0-2,1-2,2.3c0,1.4,0.7,2.3,2,2.3c1.2,0,2-1,2-2.3C37.7,24.5,37,23.5,35.7,23.5z M35.7,27.3c-0.7,0-1-0.6-1-1.4
			c0-0.8,0.3-1.4,1-1.4c0.7,0,1,0.6,1,1.4C36.8,26.7,36.5,27.3,35.7,27.3z M41.4,26.2c0,0.7-0.4,1.2-0.9,1.2c-0.6,0-0.9-0.5-0.9-1.2
			v-2.5h-0.9v2.6c0,1.3,0.7,2.1,1.8,2.1c1.2,0,1.8-0.8,1.8-2.1v-2.5h-0.9V26.2z M44.8,23.6h-1.4v4.5h1.4c1.2,0,2.3-0.7,2.3-2.3
			C47.1,24.2,46.1,23.6,44.8,23.6z M44.8,27.3h-0.4v-2.8h0.5c1,0,1.4,0.5,1.4,1.4C46.2,26.7,45.7,27.3,44.8,27.3z"/>
	</g>
</g>
</svg>
