<?xml version="1.0" encoding="utf-8"?>
<!-- Generator: Adobe Illustrator 20.1.0, SVG Export Plug-In . SVG Version: 6.00 Build 0)  -->
<svg version="1.1" xmlns="http://www.w3.org/2000/svg" xmlns:xlink="http://www.w3.org/1999/xlink" x="0px" y="0px"
	 viewBox="0 0 50 50" style="enable-background:new 0 0 50 50;" xml:space="preserve">
<style type="text/css">
	.st0{display:none;}
	.st1{display:inline;fill:#FFFFFF;}
	.st2{fill:#ABABAB;}
	.st3{display:inline;fill:#5FA9DD;}
</style>
<g id="XMLID_1_" class="st0">
	<path class="st1" d="M49.9,7.8c-1.8,0.8-3.8,1.4-5.9,1.6c2.1-1.3,3.7-3.3,4.5-5.7c-2,1.2-4.2,2-6.5,2.5c-1.9-2-4.5-3.2-7.5-3.2
		c-5.7,0-10.2,4.6-10.2,10.2c0,0.8,0.1,1.6,0.3,2.3c-8.5-0.4-16-4.5-21.1-10.7C2.6,6.4,2.1,8.1,2.1,10c0,3.6,1.8,6.7,4.6,8.5
		C5,18.5,3.4,18,2,17.3c0,0,0,0.1,0,0.1c0,5,3.5,9.1,8.2,10c-0.9,0.2-1.8,0.4-2.7,0.4c-0.7,0-1.3-0.1-1.9-0.2c1.3,4.1,5.1,7,9.6,7.1
		c-3.5,2.7-7.9,4.4-12.7,4.4c-0.8,0-1.6,0-2.4-0.1c4.5,2.9,9.9,4.6,15.7,4.6c18.8,0,29.1-15.6,29.1-29.1c0-0.4,0-0.9,0-1.3
		C46.8,11.7,48.5,9.9,49.9,7.8z"/>
</g>
<g id="XMLID_3_">
	<path class="st2" d="M49.9,7.8c-1.8,0.8-3.8,1.4-5.9,1.6c2.1-1.3,3.7-3.3,4.5-5.7c-2,1.2-4.2,2-6.5,2.5c-1.9-2-4.5-3.2-7.5-3.2
		c-5.7,0-10.2,4.6-10.2,10.2c0,0.8,0.1,1.6,0.3,2.3c-8.5-0.4-16-4.5-21.1-10.7C2.6,6.4,2.1,8.1,2.1,10c0,3.6,1.8,6.7,4.6,8.5
		C5,18.5,3.4,18,2,17.3c0,0,0,0.1,0,0.1c0,5,3.5,9.1,8.2,10c-0.9,0.2-1.8,0.4-2.7,0.4c-0.7,0-1.3-0.1-1.9-0.2c1.3,4.1,5.1,7,9.6,7.1
		c-3.5,2.7-7.9,4.4-12.7,4.4c-0.8,0-1.6,0-2.4-0.1c4.5,2.9,9.9,4.6,15.7,4.6c18.8,0,29.1-15.6,29.1-29.1c0-0.4,0-0.9,0-1.3
		C46.8,11.7,48.5,9.9,49.9,7.8z"/>
</g>
<g id="XMLID_2_" class="st0">
	<path class="st3" d="M49.9,7.8c-1.8,0.8-3.8,1.4-5.9,1.6c2.1-1.3,3.7-3.3,4.5-5.7c-2,1.2-4.2,2-6.5,2.5c-1.9-2-4.5-3.2-7.5-3.2
		c-5.7,0-10.2,4.6-10.2,10.2c0,0.8,0.1,1.6,0.3,2.3c-8.5-0.4-16-4.5-21.1-10.7C2.6,6.4,2.1,8.1,2.1,10c0,3.6,1.8,6.7,4.6,8.5
		C5,18.5,3.4,18,2,17.3c0,0,0,0.1,0,0.1c0,5,3.5,9.1,8.2,10c-0.9,0.2-1.8,0.4-2.7,0.4c-0.7,0-1.3-0.1-1.9-0.2c1.3,4.1,5.1,7,9.6,7.1
		c-3.5,2.7-7.9,4.4-12.7,4.4c-0.8,0-1.6,0-2.4-0.1c4.5,2.9,9.9,4.6,15.7,4.6c18.8,0,29.1-15.6,29.1-29.1c0-0.4,0-0.9,0-1.3
		C46.8,11.7,48.5,9.9,49.9,7.8z"/>
</g>
</svg>
