<svg xmlns="http://www.w3.org/2000/svg" width="50" height="41" viewBox="0 0 50 41">
  <path fill="#ABABAB" d="M49.9,4.8 C48.1,5.6 46.1,6.2 44,6.4 C46.1,5.1 47.7,3.1 48.5,0.7 C46.5,1.9 44.3,2.7 42,3.2 C40.1,1.2 37.5,0 34.5,0 C28.8,0 24.3,4.6 24.3,10.2 C24.3,11 24.4,11.8 24.6,12.5 C16.1,12.1 8.6,8 3.5,1.8 C2.6,3.4 2.1,5.1 2.1,7 C2.1,10.6 3.9,13.7 6.7,15.5 C5,15.5 3.4,15 2,14.3 C2,14.3 2,14.4 2,14.4 C2,19.4 5.5,23.5 10.2,24.4 C9.3,24.6 8.4,24.8 7.5,24.8 C6.8,24.8 6.2,24.7 5.6,24.6 C6.9,28.7 10.7,31.6 15.2,31.7 C11.7,34.4 7.3,36.1 2.5,36.1 C1.7,36.1 0.9,36.1 0.1,36 C4.6,38.9 10,40.6 15.8,40.6 C34.6,40.6 44.9,25 44.9,11.5 C44.9,11.1 44.9,10.6 44.9,10.2 C46.8,8.7 48.5,6.9 49.9,4.8 Z"/>
</svg>
